REM MD5 74cf71fdca290e8d2c842f2ca236c8b3
FILE "M6 PlayStation - Best of '99 Vol. 1 (France).bin" BINARY
  TRACK 01 MODE2/2352
    INDEX 01 00:00:00
  TRACK 02 AUDIO
    INDEX 00 56:38:59
    INDEX 01 56:40:59
  TRACK 03 AUDIO
    INDEX 00 60:05:27
    INDEX 01 60:07:27
REM LEADOUT 63:08:59
